<svg width="157" height="50" viewBox="0 0 157 50" fill="none" xmlns="http://www.w3.org/2000/svg">
<g clip-path="url(#clip0_279_5986)">
<path d="M53.235 34.2003C55.4662 34.2003 56.56 32.6643 56.56 30.9086C56.56 29.1532 55.51 27.7048 53.2788 27.7048H48.6413V34.2003H53.235ZM52.5787 21.5604C54.5038 21.5604 55.3351 20.1561 55.3351 18.6638C55.3351 17.2156 54.5038 15.9868 52.4475 15.9868H48.6413V21.5604H52.5787ZM40.9849 9.40341H52.4913C58.7476 9.40341 63.1226 12.2122 63.1226 17.6105C63.1226 20.2438 61.8539 22.921 59.4914 24.2815V24.3694C63.0791 25.4666 64.3916 28.6703 64.3916 31.4355C64.3916 38.2818 58.7038 40.7833 52.4913 40.7833H40.9849V9.40341Z" fill="white"/>
<path d="M66.5605 18.181H73.8233V21.9993C73.8233 22.7454 73.7357 23.4036 73.7357 23.4036H73.8233C74.7858 20.3315 77.6295 17.7861 80.9983 17.7861C81.4358 17.7861 81.8732 17.8737 81.8732 17.8737V25.3348C81.8732 25.3348 81.2608 25.203 80.3421 25.203C78.5484 25.203 75.6171 25.7736 74.5233 29.1531C74.2608 29.9868 74.1294 30.9964 74.1294 32.2252V40.7834H66.5605V18.181Z" fill="white"/>
<path d="M84.061 18.1811H91.6299V40.7836H84.061V18.1811Z" fill="white"/>
<path d="M91.6299 12.9144C91.6299 10.8177 89.9355 9.11804 87.8454 9.11804C85.7554 9.11804 84.061 10.8177 84.061 12.9144C84.061 15.0111 85.7554 16.7108 87.8454 16.7108C89.9355 16.7108 91.6299 15.0111 91.6299 12.9144Z" fill="white"/>
<path d="M109.617 28.8457C109.617 24.8519 107.517 23.9743 105.242 23.9743C102.573 23.9743 101.217 25.9054 101.217 28.4948C101.217 31.3035 102.53 33.8053 105.548 33.8053C107.517 33.8053 109.617 32.7957 109.617 28.8457ZM104.236 43.6801C106.949 43.6801 109.442 42.6707 109.442 39.3351V38.5889C109.442 38.3257 109.486 37.7552 109.486 37.7552H109.399C108.086 39.3351 106.38 40.1251 103.755 40.1251C96.9733 40.1251 93.6045 34.5513 93.6045 28.7581C93.6045 23.0088 96.8859 17.6544 103.711 17.6544C107.824 17.6544 109.836 19.8487 109.836 19.8487H109.967C109.967 19.8487 109.924 19.5854 109.924 19.3222V18.1811H117.011V38.7206C117.011 46.9716 110.449 50 104.28 50C101.261 50 97.9359 49.1222 95.7483 47.981L97.8921 42.2317C97.8921 42.2317 100.692 43.6801 104.236 43.6801Z" fill="white"/>
<path d="M133.987 17.6544C131.012 17.6544 128.387 19.015 127.118 21.2532H127.031C127.031 21.2532 127.118 20.4632 127.118 19.3222V8.04305L119.549 12.4267V40.7833H127.118V30.7771C127.118 29.7236 127.206 28.7581 127.512 27.8803C128.168 25.9054 129.7 24.5449 132.018 24.5449C133.681 24.5449 134.512 25.4225 134.512 27.5293V40.7833H142.081V26.1248C142.081 19.761 138.537 17.6544 133.987 17.6544Z" fill="white"/>
<path d="M155.994 34.3319C154.55 34.3319 151.969 33.9809 151.969 31.4355V24.5009H156.694V18.5762H151.969V10.3751L144.4 14.7588V32.4447C144.4 40.0375 151.356 41.0029 154.944 41.0029C156.169 41.0029 157 40.8714 157 40.8714V34.288C157 34.288 156.606 34.3319 155.994 34.3319Z" fill="white"/>
<path d="M0 40.911C0 41.5714 0.35627 42.1079 0.855127 42.3969C1.35398 42.6857 1.99542 42.7271 2.56557 42.3969L10.8243 37.6137V-2.37112e-05L0 6.26892V40.911Z" fill="#009FC7"/>
<path d="M0.85498 42.3968C1.35384 42.6858 1.99528 42.727 2.56543 42.3968L21.6483 31.3448L29.907 36.1279C30.477 36.458 30.7621 37.0358 30.7621 37.6138C30.7621 38.1915 30.477 38.7693 29.907 39.0995L13.3895 48.6658C12.8194 48.9959 12.1781 48.9547 11.6793 48.6658L0.85498 42.3968Z" fill="#E39400"/>
<path d="M16.2363 28.2103L29.9071 36.1279C30.4773 36.458 30.7622 37.036 30.7622 37.6138V25.0759C30.7622 24.4979 30.4773 23.9201 29.9071 23.59L16.2363 15.6725V28.2103Z" fill="#E6D600"/>
</g>
<defs>
<clipPath id="clip0_279_5986">
<rect width="157" height="50" fill="white"/>
</clipPath>
</defs>
</svg>
